<svg xmlns="http://www.w3.org/2000/svg" viewBox="0 0 32 32" fill="none" stroke="#000000" stroke-width="1.8" stroke-linecap="round" stroke-linejoin="round">
  <!-- Cartesian Grid background representation -->
  <line x1="0" y1="16" x2="32" y2="16" stroke="#000000" stroke-opacity="0.1" stroke-width="0.8" />
  <line x1="16" y1="0" x2="16" y2="32" stroke="#000000" stroke-opacity="0.1" stroke-width="0.8" />
  <circle cx="16" cy="16" r="11" stroke="#000000" stroke-opacity="0.08" stroke-width="0.8" stroke-dasharray="1.5 1.5" />

  <!-- "矢" Character strokes -->
  <path d="M16 28 L16 6" />
  <path d="M12 10 L16 6 L20 10" />
  <path d="M21 6 L11 9" />
  <path d="M8 14 L24 14" />
  <path d="M16 14 L8 24" />
  <path d="M16 14 L24 24" />

  <!-- Node Circles (Simulation of vector graphic anchors) -->
  <circle cx="16" cy="28" r="1.5" fill="#000000" stroke="none" />
  <circle cx="16" cy="6" r="1.5" fill="#000000" stroke="none" />
  <circle cx="21" cy="6" r="1.5" fill="#000000" stroke="none" />
  <circle cx="11" cy="9" r="1.5" fill="#000000" stroke="none" />
  <circle cx="8" cy="14" r="1.5" fill="#000000" stroke="none" />
  <circle cx="24" cy="14" r="1.5" fill="#000000" stroke="none" />
  <circle cx="8" cy="24" r="1.5" fill="#000000" stroke="none" />
  <circle cx="24" cy="24" r="1.5" fill="#000000" stroke="none" />
</svg>
